<mxfile host="Electron" modified="2023-12-05T14:14:09.401Z" agent="Mozilla/5.0 (Windows NT 10.0; Win64; x64) AppleWebKit/537.36 (KHTML, like Gecko) draw.io/21.2.1 Chrome/112.0.5615.87 Electron/24.1.2 Safari/537.36" etag="9dO5uswd86PWz6A2UykG" version="21.2.1" type="device">
  <diagram name="第 1 页" id="N3TtCXEyBpnjXgygHAYp">
    <mxGraphModel dx="1600" dy="1353" grid="1" gridSize="10" guides="1" tooltips="1" connect="1" arrows="1" fold="1" page="1" pageScale="1" pageWidth="827" pageHeight="1169" math="0" shadow="0">
      <root>
        <mxCell id="0" />
        <mxCell id="1" parent="0" />
        <mxCell id="0sW2-IP6MviV2FCEu8RI-1" value="TokenEmbedding" style="rounded=1;whiteSpace=wrap;html=1;" vertex="1" parent="1">
          <mxGeometry x="247.5" y="150" width="110" height="40" as="geometry" />
        </mxCell>
        <mxCell id="0sW2-IP6MviV2FCEu8RI-2" value="nn.Conv1d&lt;br&gt;c_in: 21, d_model: 32" style="rounded=1;whiteSpace=wrap;html=1;" vertex="1" parent="1">
          <mxGeometry x="65" y="230" width="120" height="40" as="geometry" />
        </mxCell>
        <mxCell id="0sW2-IP6MviV2FCEu8RI-18" style="edgeStyle=none;rounded=0;orthogonalLoop=1;jettySize=auto;html=1;exitX=0.5;exitY=1;exitDx=0;exitDy=0;entryX=0.5;entryY=0;entryDx=0;entryDy=0;" edge="1" parent="1" source="0sW2-IP6MviV2FCEu8RI-3" target="0sW2-IP6MviV2FCEu8RI-2">
          <mxGeometry relative="1" as="geometry">
            <Array as="points">
              <mxPoint x="125" y="160" />
            </Array>
          </mxGeometry>
        </mxCell>
        <mxCell id="0sW2-IP6MviV2FCEu8RI-3" value="x_enc" style="rounded=0;whiteSpace=wrap;html=1;" vertex="1" parent="1">
          <mxGeometry x="100" y="70" width="80" height="30" as="geometry" />
        </mxCell>
        <mxCell id="0sW2-IP6MviV2FCEu8RI-4" value="&lt;div style=&quot;color: rgb(248, 248, 242); background-color: rgb(40, 42, 54); font-family: &amp;quot;JetBrains Mono&amp;quot;, Consolas, &amp;quot;Courier New&amp;quot;, monospace; line-height: 16px;&quot;&gt;[32, 96, 21]&lt;/div&gt;" style="text;html=1;strokeColor=none;fillColor=none;align=center;verticalAlign=middle;whiteSpace=wrap;rounded=0;" vertex="1" parent="1">
          <mxGeometry x="190" y="70" width="100" height="30" as="geometry" />
        </mxCell>
        <mxCell id="0sW2-IP6MviV2FCEu8RI-22" style="edgeStyle=none;rounded=0;orthogonalLoop=1;jettySize=auto;html=1;exitX=0.5;exitY=1;exitDx=0;exitDy=0;entryX=0;entryY=0.5;entryDx=0;entryDy=0;" edge="1" parent="1" source="0sW2-IP6MviV2FCEu8RI-5" target="0sW2-IP6MviV2FCEu8RI-21">
          <mxGeometry relative="1" as="geometry" />
        </mxCell>
        <mxCell id="0sW2-IP6MviV2FCEu8RI-5" value="&lt;div style=&quot;color: rgb(248, 248, 242); background-color: rgb(40, 42, 54); font-family: &amp;quot;JetBrains Mono&amp;quot;, Consolas, &amp;quot;Courier New&amp;quot;, monospace; line-height: 16px;&quot;&gt;[32, 96, 32]&lt;/div&gt;" style="text;html=1;strokeColor=none;fillColor=none;align=center;verticalAlign=middle;whiteSpace=wrap;rounded=0;" vertex="1" parent="1">
          <mxGeometry x="70" y="320" width="100" height="30" as="geometry" />
        </mxCell>
        <mxCell id="0sW2-IP6MviV2FCEu8RI-6" value="&lt;div style=&quot;color: rgb(248, 248, 242); background-color: rgb(40, 42, 54); font-family: &amp;quot;JetBrains Mono&amp;quot;, Consolas, &amp;quot;Courier New&amp;quot;, monospace; line-height: 16px;&quot;&gt;[B, T, C]&lt;/div&gt;" style="text;html=1;strokeColor=none;fillColor=none;align=center;verticalAlign=middle;whiteSpace=wrap;rounded=0;" vertex="1" parent="1">
          <mxGeometry x="190" y="40" width="100" height="30" as="geometry" />
        </mxCell>
        <mxCell id="0sW2-IP6MviV2FCEu8RI-7" value="input size: (N, C_in, L)&lt;br&gt;output size: (N, C_out, L_out)&lt;br&gt;所以需要调换2、3维" style="text;html=1;strokeColor=none;fillColor=none;align=center;verticalAlign=middle;whiteSpace=wrap;rounded=0;" vertex="1" parent="1">
          <mxGeometry x="40" y="270" width="175" height="50" as="geometry" />
        </mxCell>
        <mxCell id="0sW2-IP6MviV2FCEu8RI-8" value="nn.Linear&lt;br&gt;d_inp: 4, d_model: 32" style="rounded=1;whiteSpace=wrap;html=1;" vertex="1" parent="1">
          <mxGeometry x="237.5" y="230" width="130" height="40" as="geometry" />
        </mxCell>
        <mxCell id="0sW2-IP6MviV2FCEu8RI-9" value="input size: (*, H_in)&lt;br&gt;output size: (*, H_out)&lt;br&gt;" style="text;html=1;strokeColor=none;fillColor=none;align=center;verticalAlign=middle;whiteSpace=wrap;rounded=0;" vertex="1" parent="1">
          <mxGeometry x="215" y="270" width="175" height="50" as="geometry" />
        </mxCell>
        <mxCell id="0sW2-IP6MviV2FCEu8RI-20" style="edgeStyle=none;rounded=0;orthogonalLoop=1;jettySize=auto;html=1;exitX=0.5;exitY=1;exitDx=0;exitDy=0;entryX=0.5;entryY=0;entryDx=0;entryDy=0;" edge="1" parent="1" source="0sW2-IP6MviV2FCEu8RI-11" target="0sW2-IP6MviV2FCEu8RI-8">
          <mxGeometry relative="1" as="geometry">
            <Array as="points">
              <mxPoint x="393" y="190" />
            </Array>
          </mxGeometry>
        </mxCell>
        <mxCell id="0sW2-IP6MviV2FCEu8RI-11" value="x_mark" style="rounded=0;whiteSpace=wrap;html=1;" vertex="1" parent="1">
          <mxGeometry x="352.5" y="70" width="80" height="30" as="geometry" />
        </mxCell>
        <mxCell id="0sW2-IP6MviV2FCEu8RI-12" value="&lt;div style=&quot;color: rgb(248, 248, 242); background-color: rgb(40, 42, 54); font-family: &amp;quot;JetBrains Mono&amp;quot;, Consolas, &amp;quot;Courier New&amp;quot;, monospace; line-height: 16px;&quot;&gt;[32, 96, 4]&lt;/div&gt;" style="text;html=1;strokeColor=none;fillColor=none;align=center;verticalAlign=middle;whiteSpace=wrap;rounded=0;" vertex="1" parent="1">
          <mxGeometry x="440" y="70" width="100" height="30" as="geometry" />
        </mxCell>
        <mxCell id="0sW2-IP6MviV2FCEu8RI-23" style="edgeStyle=none;rounded=0;orthogonalLoop=1;jettySize=auto;html=1;exitX=0.5;exitY=1;exitDx=0;exitDy=0;entryX=0.5;entryY=0;entryDx=0;entryDy=0;" edge="1" parent="1" source="0sW2-IP6MviV2FCEu8RI-13" target="0sW2-IP6MviV2FCEu8RI-21">
          <mxGeometry relative="1" as="geometry" />
        </mxCell>
        <mxCell id="0sW2-IP6MviV2FCEu8RI-13" value="&lt;div style=&quot;color: rgb(248, 248, 242); background-color: rgb(40, 42, 54); font-family: &amp;quot;JetBrains Mono&amp;quot;, Consolas, &amp;quot;Courier New&amp;quot;, monospace; line-height: 16px;&quot;&gt;[32, 96, 32]&lt;/div&gt;" style="text;html=1;strokeColor=none;fillColor=none;align=center;verticalAlign=middle;whiteSpace=wrap;rounded=0;" vertex="1" parent="1">
          <mxGeometry x="252.5" y="320" width="100" height="30" as="geometry" />
        </mxCell>
        <mxCell id="0sW2-IP6MviV2FCEu8RI-14" value="Position Embedding" style="rounded=1;whiteSpace=wrap;html=1;" vertex="1" parent="1">
          <mxGeometry x="420" y="230" width="130" height="40" as="geometry" />
        </mxCell>
        <mxCell id="0sW2-IP6MviV2FCEu8RI-24" style="edgeStyle=none;rounded=0;orthogonalLoop=1;jettySize=auto;html=1;exitX=0.5;exitY=1;exitDx=0;exitDy=0;entryX=1;entryY=0.5;entryDx=0;entryDy=0;" edge="1" parent="1" source="0sW2-IP6MviV2FCEu8RI-15" target="0sW2-IP6MviV2FCEu8RI-21">
          <mxGeometry relative="1" as="geometry" />
        </mxCell>
        <mxCell id="0sW2-IP6MviV2FCEu8RI-15" value="&lt;div style=&quot;color: rgb(248, 248, 242); background-color: rgb(40, 42, 54); font-family: &amp;quot;JetBrains Mono&amp;quot;, Consolas, &amp;quot;Courier New&amp;quot;, monospace; line-height: 16px;&quot;&gt;[32, 96, 32]&lt;/div&gt;" style="text;html=1;strokeColor=none;fillColor=none;align=center;verticalAlign=middle;whiteSpace=wrap;rounded=0;" vertex="1" parent="1">
          <mxGeometry x="435" y="320" width="100" height="30" as="geometry" />
        </mxCell>
        <mxCell id="0sW2-IP6MviV2FCEu8RI-95" style="edgeStyle=none;rounded=0;orthogonalLoop=1;jettySize=auto;html=1;exitX=0.5;exitY=1;exitDx=0;exitDy=0;entryX=0.5;entryY=0;entryDx=0;entryDy=0;" edge="1" parent="1" source="0sW2-IP6MviV2FCEu8RI-21" target="0sW2-IP6MviV2FCEu8RI-26">
          <mxGeometry relative="1" as="geometry" />
        </mxCell>
        <mxCell id="0sW2-IP6MviV2FCEu8RI-21" value="add" style="ellipse;whiteSpace=wrap;html=1;aspect=fixed;" vertex="1" parent="1">
          <mxGeometry x="282.5" y="390" width="40" height="40" as="geometry" />
        </mxCell>
        <mxCell id="0sW2-IP6MviV2FCEu8RI-25" value="&lt;div style=&quot;color: rgb(248, 248, 242); background-color: rgb(40, 42, 54); font-family: &amp;quot;JetBrains Mono&amp;quot;, Consolas, &amp;quot;Courier New&amp;quot;, monospace; line-height: 16px;&quot;&gt;[32, 96, 32]&lt;/div&gt;" style="text;html=1;strokeColor=none;fillColor=none;align=center;verticalAlign=middle;whiteSpace=wrap;rounded=0;" vertex="1" parent="1">
          <mxGeometry x="342.5" y="410" width="100" height="30" as="geometry" />
        </mxCell>
        <mxCell id="0sW2-IP6MviV2FCEu8RI-35" style="edgeStyle=none;rounded=0;orthogonalLoop=1;jettySize=auto;html=1;exitX=0.5;exitY=1;exitDx=0;exitDy=0;entryX=0.5;entryY=0;entryDx=0;entryDy=0;" edge="1" parent="1" source="0sW2-IP6MviV2FCEu8RI-26" target="0sW2-IP6MviV2FCEu8RI-28">
          <mxGeometry relative="1" as="geometry" />
        </mxCell>
        <mxCell id="0sW2-IP6MviV2FCEu8RI-26" value="predict_linear" style="rounded=1;whiteSpace=wrap;html=1;" vertex="1" parent="1">
          <mxGeometry x="247.5" y="460" width="110" height="40" as="geometry" />
        </mxCell>
        <mxCell id="0sW2-IP6MviV2FCEu8RI-27" value="&lt;div style=&quot;color: rgb(248, 248, 242); background-color: rgb(40, 42, 54); font-family: &amp;quot;JetBrains Mono&amp;quot;, Consolas, &amp;quot;Courier New&amp;quot;, monospace; line-height: 16px;&quot;&gt;[32, 192, 32]&lt;/div&gt;" style="text;html=1;strokeColor=none;fillColor=none;align=center;verticalAlign=middle;whiteSpace=wrap;rounded=0;" vertex="1" parent="1">
          <mxGeometry x="342.5" y="510" width="100" height="30" as="geometry" />
        </mxCell>
        <mxCell id="0sW2-IP6MviV2FCEu8RI-36" style="edgeStyle=none;rounded=0;orthogonalLoop=1;jettySize=auto;html=1;exitX=0.5;exitY=1;exitDx=0;exitDy=0;entryX=0.5;entryY=0;entryDx=0;entryDy=0;" edge="1" parent="1" source="0sW2-IP6MviV2FCEu8RI-28" target="0sW2-IP6MviV2FCEu8RI-31">
          <mxGeometry relative="1" as="geometry" />
        </mxCell>
        <mxCell id="0sW2-IP6MviV2FCEu8RI-28" value="TimesBlock" style="rounded=1;whiteSpace=wrap;html=1;" vertex="1" parent="1">
          <mxGeometry x="247.5" y="570" width="110" height="40" as="geometry" />
        </mxCell>
        <mxCell id="0sW2-IP6MviV2FCEu8RI-29" value="&lt;div style=&quot;color: rgb(248, 248, 242); background-color: rgb(40, 42, 54); font-family: &amp;quot;JetBrains Mono&amp;quot;, Consolas, &amp;quot;Courier New&amp;quot;, monospace; line-height: 16px;&quot;&gt;[32, 192, 21]&lt;/div&gt;" style="text;html=1;strokeColor=none;fillColor=none;align=center;verticalAlign=middle;whiteSpace=wrap;rounded=0;" vertex="1" parent="1">
          <mxGeometry x="342.5" y="620" width="100" height="30" as="geometry" />
        </mxCell>
        <mxCell id="0sW2-IP6MviV2FCEu8RI-37" style="edgeStyle=none;rounded=0;orthogonalLoop=1;jettySize=auto;html=1;exitX=0.5;exitY=1;exitDx=0;exitDy=0;entryX=0.5;entryY=0;entryDx=0;entryDy=0;" edge="1" parent="1" source="0sW2-IP6MviV2FCEu8RI-31" target="0sW2-IP6MviV2FCEu8RI-34">
          <mxGeometry relative="1" as="geometry" />
        </mxCell>
        <mxCell id="0sW2-IP6MviV2FCEu8RI-31" value="Slice" style="rounded=1;whiteSpace=wrap;html=1;" vertex="1" parent="1">
          <mxGeometry x="247.5" y="660" width="110" height="40" as="geometry" />
        </mxCell>
        <mxCell id="0sW2-IP6MviV2FCEu8RI-32" value="&lt;div style=&quot;color: rgb(248, 248, 242); background-color: rgb(40, 42, 54); font-family: &amp;quot;JetBrains Mono&amp;quot;, Consolas, &amp;quot;Courier New&amp;quot;, monospace; line-height: 16px;&quot;&gt;[32, 96, 21]&lt;/div&gt;" style="text;html=1;strokeColor=none;fillColor=none;align=center;verticalAlign=middle;whiteSpace=wrap;rounded=0;" vertex="1" parent="1">
          <mxGeometry x="342.5" y="750" width="100" height="30" as="geometry" />
        </mxCell>
        <mxCell id="0sW2-IP6MviV2FCEu8RI-42" style="edgeStyle=none;rounded=0;orthogonalLoop=1;jettySize=auto;html=1;exitX=0.5;exitY=1;exitDx=0;exitDy=0;entryX=0;entryY=0;entryDx=0;entryDy=0;" edge="1" parent="1" source="0sW2-IP6MviV2FCEu8RI-34" target="0sW2-IP6MviV2FCEu8RI-41">
          <mxGeometry relative="1" as="geometry" />
        </mxCell>
        <mxCell id="0sW2-IP6MviV2FCEu8RI-34" value="outputs" style="rounded=0;whiteSpace=wrap;html=1;" vertex="1" parent="1">
          <mxGeometry x="262.5" y="750" width="80" height="30" as="geometry" />
        </mxCell>
        <mxCell id="0sW2-IP6MviV2FCEu8RI-43" style="edgeStyle=none;rounded=0;orthogonalLoop=1;jettySize=auto;html=1;exitX=0.5;exitY=1;exitDx=0;exitDy=0;entryX=1;entryY=0;entryDx=0;entryDy=0;" edge="1" parent="1" source="0sW2-IP6MviV2FCEu8RI-38" target="0sW2-IP6MviV2FCEu8RI-41">
          <mxGeometry relative="1" as="geometry" />
        </mxCell>
        <mxCell id="0sW2-IP6MviV2FCEu8RI-38" value="batch_y" style="rounded=0;whiteSpace=wrap;html=1;" vertex="1" parent="1">
          <mxGeometry x="480" y="690" width="80" height="30" as="geometry" />
        </mxCell>
        <mxCell id="0sW2-IP6MviV2FCEu8RI-39" value="&lt;div style=&quot;color: rgb(248, 248, 242); background-color: rgb(40, 42, 54); font-family: &amp;quot;JetBrains Mono&amp;quot;, Consolas, &amp;quot;Courier New&amp;quot;, monospace; line-height: 16px;&quot;&gt;[32, 144, 21]&lt;/div&gt;" style="text;html=1;strokeColor=none;fillColor=none;align=center;verticalAlign=middle;whiteSpace=wrap;rounded=0;" vertex="1" parent="1">
          <mxGeometry x="570" y="690" width="100" height="30" as="geometry" />
        </mxCell>
        <mxCell id="0sW2-IP6MviV2FCEu8RI-40" value="&lt;div style=&quot;color: rgb(248, 248, 242); background-color: rgb(40, 42, 54); font-family: &amp;quot;JetBrains Mono&amp;quot;, Consolas, &amp;quot;Courier New&amp;quot;, monospace; line-height: 16px;&quot;&gt;[32, 96, 21]&lt;/div&gt;" style="text;html=1;strokeColor=none;fillColor=none;align=center;verticalAlign=middle;whiteSpace=wrap;rounded=0;" vertex="1" parent="1">
          <mxGeometry x="570" y="750" width="100" height="30" as="geometry" />
        </mxCell>
        <mxCell id="0sW2-IP6MviV2FCEu8RI-41" value="criterion" style="rounded=1;whiteSpace=wrap;html=1;" vertex="1" parent="1">
          <mxGeometry x="400" y="820" width="110" height="40" as="geometry" />
        </mxCell>
        <mxCell id="0sW2-IP6MviV2FCEu8RI-44" value="TimesBlock" style="rounded=1;whiteSpace=wrap;html=1;" vertex="1" parent="1">
          <mxGeometry x="800" y="75" width="110" height="40" as="geometry" />
        </mxCell>
        <mxCell id="0sW2-IP6MviV2FCEu8RI-45" value="out = out.reshape(B, length // period, period, N)&lt;br&gt;&lt;span style=&quot;white-space: pre;&quot;&gt;	&lt;/span&gt;.permute(0, 3, 1, 2).contiguous()&lt;br&gt;其中N为通道数" style="text;whiteSpace=wrap;html=1;align=left;verticalAlign=middle;" vertex="1" parent="1">
          <mxGeometry x="720" y="175" width="270" height="65" as="geometry" />
        </mxCell>
        <mxCell id="0sW2-IP6MviV2FCEu8RI-46" value="&lt;div style=&quot;color: rgb(248, 248, 242); background-color: rgb(40, 42, 54); font-family: &amp;quot;JetBrains Mono&amp;quot;, Consolas, &amp;quot;Courier New&amp;quot;, monospace; line-height: 16px;&quot;&gt;[32, 192, 32]&lt;/div&gt;" style="text;html=1;strokeColor=none;fillColor=none;align=center;verticalAlign=middle;whiteSpace=wrap;rounded=0;" vertex="1" parent="1">
          <mxGeometry x="1020" y="40" width="100" height="30" as="geometry" />
        </mxCell>
        <mxCell id="0sW2-IP6MviV2FCEu8RI-85" style="edgeStyle=none;rounded=0;orthogonalLoop=1;jettySize=auto;html=1;exitX=0.5;exitY=1;exitDx=0;exitDy=0;entryX=0.5;entryY=0;entryDx=0;entryDy=0;" edge="1" parent="1" source="0sW2-IP6MviV2FCEu8RI-47" target="0sW2-IP6MviV2FCEu8RI-53">
          <mxGeometry relative="1" as="geometry" />
        </mxCell>
        <mxCell id="0sW2-IP6MviV2FCEu8RI-47" value="&lt;div style=&quot;color: rgb(248, 248, 242); background-color: rgb(40, 42, 54); font-family: &amp;quot;JetBrains Mono&amp;quot;, Consolas, &amp;quot;Courier New&amp;quot;, monospace; line-height: 16px;&quot;&gt;[32, 32, 64, 3]&lt;/div&gt;" style="text;html=1;strokeColor=none;fillColor=none;align=center;verticalAlign=middle;whiteSpace=wrap;rounded=0;" vertex="1" parent="1">
          <mxGeometry x="980" y="300" width="140" height="30" as="geometry" />
        </mxCell>
        <mxCell id="0sW2-IP6MviV2FCEu8RI-86" style="edgeStyle=none;rounded=0;orthogonalLoop=1;jettySize=auto;html=1;exitX=0.5;exitY=1;exitDx=0;exitDy=0;entryX=0.5;entryY=0;entryDx=0;entryDy=0;" edge="1" parent="1" source="0sW2-IP6MviV2FCEu8RI-49" target="0sW2-IP6MviV2FCEu8RI-51">
          <mxGeometry relative="1" as="geometry" />
        </mxCell>
        <mxCell id="0sW2-IP6MviV2FCEu8RI-49" value="&lt;div style=&quot;color: rgb(248, 248, 242); background-color: rgb(40, 42, 54); font-family: &amp;quot;JetBrains Mono&amp;quot;, Consolas, &amp;quot;Courier New&amp;quot;, monospace; line-height: 16px;&quot;&gt;[32, 64, 3, 32]&lt;/div&gt;" style="text;html=1;strokeColor=none;fillColor=none;align=center;verticalAlign=middle;whiteSpace=wrap;rounded=0;" vertex="1" parent="1">
          <mxGeometry x="980" y="210" width="140" height="30" as="geometry" />
        </mxCell>
        <mxCell id="0sW2-IP6MviV2FCEu8RI-87" style="edgeStyle=none;rounded=0;orthogonalLoop=1;jettySize=auto;html=1;exitX=0.5;exitY=1;exitDx=0;exitDy=0;" edge="1" parent="1" source="0sW2-IP6MviV2FCEu8RI-50" target="0sW2-IP6MviV2FCEu8RI-49">
          <mxGeometry relative="1" as="geometry" />
        </mxCell>
        <mxCell id="0sW2-IP6MviV2FCEu8RI-50" value="reshape" style="rounded=1;whiteSpace=wrap;html=1;" vertex="1" parent="1">
          <mxGeometry x="995" y="160" width="110" height="40" as="geometry" />
        </mxCell>
        <mxCell id="0sW2-IP6MviV2FCEu8RI-84" style="edgeStyle=none;rounded=0;orthogonalLoop=1;jettySize=auto;html=1;exitX=0.5;exitY=1;exitDx=0;exitDy=0;entryX=0.5;entryY=0;entryDx=0;entryDy=0;" edge="1" parent="1" source="0sW2-IP6MviV2FCEu8RI-51" target="0sW2-IP6MviV2FCEu8RI-47">
          <mxGeometry relative="1" as="geometry" />
        </mxCell>
        <mxCell id="0sW2-IP6MviV2FCEu8RI-51" value="permute" style="rounded=1;whiteSpace=wrap;html=1;" vertex="1" parent="1">
          <mxGeometry x="995" y="250" width="110" height="40" as="geometry" />
        </mxCell>
        <mxCell id="0sW2-IP6MviV2FCEu8RI-52" value="为conv2d把每个通道的数据放到最后2维" style="text;html=1;strokeColor=none;fillColor=none;align=left;verticalAlign=middle;whiteSpace=wrap;rounded=0;" vertex="1" parent="1">
          <mxGeometry x="860" y="247.5" width="120" height="45" as="geometry" />
        </mxCell>
        <mxCell id="0sW2-IP6MviV2FCEu8RI-88" style="edgeStyle=none;rounded=0;orthogonalLoop=1;jettySize=auto;html=1;exitX=0.5;exitY=1;exitDx=0;exitDy=0;entryX=0.5;entryY=0;entryDx=0;entryDy=0;" edge="1" parent="1" source="0sW2-IP6MviV2FCEu8RI-53" target="0sW2-IP6MviV2FCEu8RI-54">
          <mxGeometry relative="1" as="geometry" />
        </mxCell>
        <mxCell id="0sW2-IP6MviV2FCEu8RI-53" value="Inception_Block_V1" style="rounded=1;whiteSpace=wrap;html=1;" vertex="1" parent="1">
          <mxGeometry x="967.5" y="350" width="165" height="40" as="geometry" />
        </mxCell>
        <mxCell id="0sW2-IP6MviV2FCEu8RI-89" style="edgeStyle=none;rounded=0;orthogonalLoop=1;jettySize=auto;html=1;exitX=0.5;exitY=1;exitDx=0;exitDy=0;entryX=0.5;entryY=0;entryDx=0;entryDy=0;" edge="1" parent="1" source="0sW2-IP6MviV2FCEu8RI-54" target="0sW2-IP6MviV2FCEu8RI-55">
          <mxGeometry relative="1" as="geometry" />
        </mxCell>
        <mxCell id="0sW2-IP6MviV2FCEu8RI-54" value="Inception_Block_V1" style="rounded=1;whiteSpace=wrap;html=1;" vertex="1" parent="1">
          <mxGeometry x="967.5" y="420" width="165" height="40" as="geometry" />
        </mxCell>
        <mxCell id="0sW2-IP6MviV2FCEu8RI-90" style="edgeStyle=none;rounded=0;orthogonalLoop=1;jettySize=auto;html=1;exitX=0.5;exitY=1;exitDx=0;exitDy=0;entryX=0.5;entryY=0;entryDx=0;entryDy=0;" edge="1" parent="1" source="0sW2-IP6MviV2FCEu8RI-55" target="0sW2-IP6MviV2FCEu8RI-56">
          <mxGeometry relative="1" as="geometry" />
        </mxCell>
        <mxCell id="0sW2-IP6MviV2FCEu8RI-55" value="&lt;div style=&quot;color: rgb(248, 248, 242); background-color: rgb(40, 42, 54); font-family: &amp;quot;JetBrains Mono&amp;quot;, Consolas, &amp;quot;Courier New&amp;quot;, monospace; line-height: 16px;&quot;&gt;[32, 32, 64, 3]&lt;/div&gt;" style="text;html=1;strokeColor=none;fillColor=none;align=center;verticalAlign=middle;whiteSpace=wrap;rounded=0;" vertex="1" parent="1">
          <mxGeometry x="980" y="480" width="140" height="30" as="geometry" />
        </mxCell>
        <mxCell id="0sW2-IP6MviV2FCEu8RI-91" style="edgeStyle=none;rounded=0;orthogonalLoop=1;jettySize=auto;html=1;exitX=0.5;exitY=1;exitDx=0;exitDy=0;entryX=0.5;entryY=0;entryDx=0;entryDy=0;" edge="1" parent="1" source="0sW2-IP6MviV2FCEu8RI-56" target="0sW2-IP6MviV2FCEu8RI-57">
          <mxGeometry relative="1" as="geometry" />
        </mxCell>
        <mxCell id="0sW2-IP6MviV2FCEu8RI-56" value="&lt;div style=&quot;color: rgb(248, 248, 242); background-color: rgb(40, 42, 54); font-family: &amp;quot;JetBrains Mono&amp;quot;, Consolas, &amp;quot;Courier New&amp;quot;, monospace; line-height: 16px;&quot;&gt;[32, 192, 32]&lt;/div&gt;" style="text;html=1;strokeColor=none;fillColor=none;align=center;verticalAlign=middle;whiteSpace=wrap;rounded=0;" vertex="1" parent="1">
          <mxGeometry x="1000" y="520" width="100" height="30" as="geometry" />
        </mxCell>
        <mxCell id="0sW2-IP6MviV2FCEu8RI-92" style="edgeStyle=none;rounded=0;orthogonalLoop=1;jettySize=auto;html=1;exitX=0.5;exitY=1;exitDx=0;exitDy=0;entryX=0.5;entryY=0;entryDx=0;entryDy=0;" edge="1" parent="1" source="0sW2-IP6MviV2FCEu8RI-57" target="0sW2-IP6MviV2FCEu8RI-59">
          <mxGeometry relative="1" as="geometry" />
        </mxCell>
        <mxCell id="0sW2-IP6MviV2FCEu8RI-57" value="res = torch.stack" style="rounded=1;whiteSpace=wrap;html=1;" vertex="1" parent="1">
          <mxGeometry x="967.5" y="560" width="165" height="40" as="geometry" />
        </mxCell>
        <mxCell id="0sW2-IP6MviV2FCEu8RI-58" value="把各个频率计算的res堆叠在一起" style="text;html=1;strokeColor=none;fillColor=none;align=left;verticalAlign=middle;whiteSpace=wrap;rounded=0;" vertex="1" parent="1">
          <mxGeometry x="847" y="555" width="120" height="45" as="geometry" />
        </mxCell>
        <mxCell id="0sW2-IP6MviV2FCEu8RI-78" style="edgeStyle=none;rounded=0;orthogonalLoop=1;jettySize=auto;html=1;exitX=0.5;exitY=1;exitDx=0;exitDy=0;entryX=0;entryY=0;entryDx=0;entryDy=0;" edge="1" parent="1" source="0sW2-IP6MviV2FCEu8RI-59" target="0sW2-IP6MviV2FCEu8RI-66">
          <mxGeometry relative="1" as="geometry" />
        </mxCell>
        <mxCell id="0sW2-IP6MviV2FCEu8RI-59" value="&lt;div style=&quot;color: rgb(248, 248, 242); background-color: rgb(40, 42, 54); font-family: &amp;quot;JetBrains Mono&amp;quot;, Consolas, &amp;quot;Courier New&amp;quot;, monospace; line-height: 16px;&quot;&gt;[32, 192, 32, 5]&lt;/div&gt;" style="text;html=1;strokeColor=none;fillColor=none;align=center;verticalAlign=middle;whiteSpace=wrap;rounded=0;" vertex="1" parent="1">
          <mxGeometry x="987.5" y="610" width="125" height="30" as="geometry" />
        </mxCell>
        <mxCell id="0sW2-IP6MviV2FCEu8RI-60" value="period_weight" style="rounded=0;whiteSpace=wrap;html=1;" vertex="1" parent="1">
          <mxGeometry x="1190" y="520" width="80" height="30" as="geometry" />
        </mxCell>
        <mxCell id="0sW2-IP6MviV2FCEu8RI-61" value="&lt;div style=&quot;color: rgb(248, 248, 242); background-color: rgb(40, 42, 54); font-family: &amp;quot;JetBrains Mono&amp;quot;, Consolas, &amp;quot;Courier New&amp;quot;, monospace; line-height: 16px;&quot;&gt;[32, 5]&lt;/div&gt;" style="text;html=1;strokeColor=none;fillColor=none;align=center;verticalAlign=middle;whiteSpace=wrap;rounded=0;" vertex="1" parent="1">
          <mxGeometry x="1280" y="520" width="100" height="30" as="geometry" />
        </mxCell>
        <mxCell id="0sW2-IP6MviV2FCEu8RI-77" style="edgeStyle=none;rounded=0;orthogonalLoop=1;jettySize=auto;html=1;exitX=0.5;exitY=1;exitDx=0;exitDy=0;entryX=1;entryY=0;entryDx=0;entryDy=0;" edge="1" parent="1" source="0sW2-IP6MviV2FCEu8RI-63" target="0sW2-IP6MviV2FCEu8RI-66">
          <mxGeometry relative="1" as="geometry" />
        </mxCell>
        <mxCell id="0sW2-IP6MviV2FCEu8RI-63" value="&lt;div style=&quot;color: rgb(248, 248, 242); background-color: rgb(40, 42, 54); font-family: &amp;quot;JetBrains Mono&amp;quot;, Consolas, &amp;quot;Courier New&amp;quot;, monospace; line-height: 16px;&quot;&gt;[32, 192, 32, 5]&lt;/div&gt;" style="text;html=1;strokeColor=none;fillColor=none;align=center;verticalAlign=middle;whiteSpace=wrap;rounded=0;" vertex="1" parent="1">
          <mxGeometry x="1267.5" y="610" width="125" height="30" as="geometry" />
        </mxCell>
        <mxCell id="0sW2-IP6MviV2FCEu8RI-65" value="unsqueeze(1)&lt;br&gt;.unsqueeze(1)&lt;br&gt;.repeat(1, T, N, 1)" style="text;whiteSpace=wrap;html=1;" vertex="1" parent="1">
          <mxGeometry x="1190" y="555" width="100" height="50" as="geometry" />
        </mxCell>
        <mxCell id="0sW2-IP6MviV2FCEu8RI-79" style="edgeStyle=none;rounded=0;orthogonalLoop=1;jettySize=auto;html=1;exitX=0.5;exitY=1;exitDx=0;exitDy=0;entryX=0.5;entryY=0;entryDx=0;entryDy=0;" edge="1" parent="1" source="0sW2-IP6MviV2FCEu8RI-66" target="0sW2-IP6MviV2FCEu8RI-67">
          <mxGeometry relative="1" as="geometry" />
        </mxCell>
        <mxCell id="0sW2-IP6MviV2FCEu8RI-66" value="res * weight, 把各个频率的值求和" style="rounded=1;whiteSpace=wrap;html=1;" vertex="1" parent="1">
          <mxGeometry x="1120" y="660" width="114" height="40" as="geometry" />
        </mxCell>
        <mxCell id="0sW2-IP6MviV2FCEu8RI-81" style="edgeStyle=none;rounded=0;orthogonalLoop=1;jettySize=auto;html=1;exitX=0.5;exitY=1;exitDx=0;exitDy=0;entryX=0.5;entryY=0;entryDx=0;entryDy=0;" edge="1" parent="1" source="0sW2-IP6MviV2FCEu8RI-67" target="0sW2-IP6MviV2FCEu8RI-80">
          <mxGeometry relative="1" as="geometry" />
        </mxCell>
        <mxCell id="0sW2-IP6MviV2FCEu8RI-67" value="res" style="rounded=0;whiteSpace=wrap;html=1;" vertex="1" parent="1">
          <mxGeometry x="1137" y="730" width="80" height="30" as="geometry" />
        </mxCell>
        <mxCell id="0sW2-IP6MviV2FCEu8RI-70" style="edgeStyle=none;rounded=0;orthogonalLoop=1;jettySize=auto;html=1;exitX=0.5;exitY=1;exitDx=0;exitDy=0;entryX=0.5;entryY=0;entryDx=0;entryDy=0;" edge="1" parent="1" source="0sW2-IP6MviV2FCEu8RI-68" target="0sW2-IP6MviV2FCEu8RI-50">
          <mxGeometry relative="1" as="geometry" />
        </mxCell>
        <mxCell id="0sW2-IP6MviV2FCEu8RI-71" style="edgeStyle=none;rounded=0;orthogonalLoop=1;jettySize=auto;html=1;exitX=0.5;exitY=1;exitDx=0;exitDy=0;entryX=0.5;entryY=0;entryDx=0;entryDy=0;" edge="1" parent="1" source="0sW2-IP6MviV2FCEu8RI-68" target="0sW2-IP6MviV2FCEu8RI-69">
          <mxGeometry relative="1" as="geometry" />
        </mxCell>
        <mxCell id="0sW2-IP6MviV2FCEu8RI-82" style="edgeStyle=none;rounded=0;orthogonalLoop=1;jettySize=auto;html=1;exitX=1;exitY=0.5;exitDx=0;exitDy=0;entryX=1;entryY=0.5;entryDx=0;entryDy=0;" edge="1" parent="1" source="0sW2-IP6MviV2FCEu8RI-68" target="0sW2-IP6MviV2FCEu8RI-80">
          <mxGeometry relative="1" as="geometry">
            <Array as="points">
              <mxPoint x="1340" y="100" />
              <mxPoint x="1390" y="180" />
              <mxPoint x="1390" y="320" />
              <mxPoint x="1390" y="500" />
              <mxPoint x="1390" y="590" />
              <mxPoint x="1390" y="690" />
            </Array>
          </mxGeometry>
        </mxCell>
        <mxCell id="0sW2-IP6MviV2FCEu8RI-68" value="x" style="rounded=0;whiteSpace=wrap;html=1;" vertex="1" parent="1">
          <mxGeometry x="1132.5" y="40" width="80" height="30" as="geometry" />
        </mxCell>
        <mxCell id="0sW2-IP6MviV2FCEu8RI-74" style="edgeStyle=none;rounded=0;orthogonalLoop=1;jettySize=auto;html=1;exitX=0.5;exitY=1;exitDx=0;exitDy=0;entryX=0.5;entryY=0;entryDx=0;entryDy=0;" edge="1" parent="1" source="0sW2-IP6MviV2FCEu8RI-69" target="0sW2-IP6MviV2FCEu8RI-72">
          <mxGeometry relative="1" as="geometry" />
        </mxCell>
        <mxCell id="0sW2-IP6MviV2FCEu8RI-75" style="edgeStyle=none;rounded=0;orthogonalLoop=1;jettySize=auto;html=1;exitX=0.5;exitY=1;exitDx=0;exitDy=0;entryX=0.5;entryY=0;entryDx=0;entryDy=0;" edge="1" parent="1" source="0sW2-IP6MviV2FCEu8RI-69" target="0sW2-IP6MviV2FCEu8RI-73">
          <mxGeometry relative="1" as="geometry" />
        </mxCell>
        <mxCell id="0sW2-IP6MviV2FCEu8RI-69" value="FFT_for_period" style="rounded=1;whiteSpace=wrap;html=1;" vertex="1" parent="1">
          <mxGeometry x="1200" y="115" width="110" height="40" as="geometry" />
        </mxCell>
        <mxCell id="0sW2-IP6MviV2FCEu8RI-72" value="period_list" style="rounded=0;whiteSpace=wrap;html=1;" vertex="1" parent="1">
          <mxGeometry x="1154" y="192.5" width="80" height="30" as="geometry" />
        </mxCell>
        <mxCell id="0sW2-IP6MviV2FCEu8RI-76" style="edgeStyle=none;rounded=0;orthogonalLoop=1;jettySize=auto;html=1;exitX=0.5;exitY=1;exitDx=0;exitDy=0;entryX=0.5;entryY=0;entryDx=0;entryDy=0;" edge="1" parent="1" source="0sW2-IP6MviV2FCEu8RI-73" target="0sW2-IP6MviV2FCEu8RI-60">
          <mxGeometry relative="1" as="geometry" />
        </mxCell>
        <mxCell id="0sW2-IP6MviV2FCEu8RI-73" value="period_weight" style="rounded=0;whiteSpace=wrap;html=1;" vertex="1" parent="1">
          <mxGeometry x="1270" y="192.5" width="80" height="30" as="geometry" />
        </mxCell>
        <mxCell id="0sW2-IP6MviV2FCEu8RI-94" style="edgeStyle=none;rounded=0;orthogonalLoop=1;jettySize=auto;html=1;exitX=0.5;exitY=1;exitDx=0;exitDy=0;entryX=0.5;entryY=0;entryDx=0;entryDy=0;" edge="1" parent="1" source="0sW2-IP6MviV2FCEu8RI-80" target="0sW2-IP6MviV2FCEu8RI-93">
          <mxGeometry relative="1" as="geometry" />
        </mxCell>
        <mxCell id="0sW2-IP6MviV2FCEu8RI-80" value="残差连接，相加" style="rounded=1;whiteSpace=wrap;html=1;" vertex="1" parent="1">
          <mxGeometry x="1120" y="790" width="114" height="40" as="geometry" />
        </mxCell>
        <mxCell id="0sW2-IP6MviV2FCEu8RI-93" value="x" style="rounded=0;whiteSpace=wrap;html=1;" vertex="1" parent="1">
          <mxGeometry x="1137" y="850" width="80" height="30" as="geometry" />
        </mxCell>
      </root>
    </mxGraphModel>
  </diagram>
</mxfile>
